# xmcd
#
# Track frame offsets:
#	150
#	15818
#	33774
#	50568
#	66404
#	84177
#	102491
#	118910
#	133807
#	149977
#	171435
#	190452
#	207068
#	224707
#	242115
#
# Disc length: 3491 seconds
#
# Revision: 1
# Processed by: cddbd v1.5.2PL0 Copyright (c) Steve Scherf et al.
# Submitted via: audiograbber 1.83.01
#
DISCID=e90da10f
DTITLE=Various Artist - Sing It Now Country WinSpr 2007
DYEAR=2007
DGENRE=Karaoke
TTITLE0=Carrie Underwood - Before He Cheats
TTITLE1=Kenny Chesney - You Save Me
TTITLE2=Taylor Swift - Tim McGraw
TTITLE3=Sugarland - Want To
TTITLE4=Rascal Flats - My Wish
TTITLE5=LeAnn Rimes - Some People
TTITLE6=Tim McGraw - My Little Girl
TTITLE7=Toby Keith - Crash Here Tonight
TTITLE8=Heartland - I Loved Her First
TTITLE9=Sara Evans - You'll Always Be My Baby
TTITLE10=Brad Paisley - She's Everything
TTITLE11=George Strait - Give It Away
TTITLE12=Sarah Buxton - Innocence
TTITLE13=Trent Tomlin - One Wing In The Fire
TTITLE14=Keith Urban - Once In A Lifetime
EXTD=
EXTT0=
EXTT1=
EXTT2=
EXTT3=
EXTT4=
EXTT5=
EXTT6=
EXTT7=
EXTT8=
EXTT9=
EXTT10=
EXTT11=
EXTT12=
EXTT13=
EXTT14=
PLAYORDER=
